<svg xmlns="http://www.w3.org/2000/svg" xmlns:xlink="http://www.w3.org/1999/xlink" width="2000" zoomAndPan="magnify" viewBox="0 0 1500 1499.999933" height="2000" preserveAspectRatio="xMidYMid meet" version="1.0"><path fill="#d97757" d="M 421.511719 1198.410156 C 283.210938 1012.597656 214.617188 756.445312 241.433594 526.390625 C 0.238281 781.832031 84.90625 1097.824219 421.511719 1198.410156 Z M 421.511719 1198.410156 " fill-opacity="1" fill-rule="evenodd"/><path fill="#d97757" d="M 1248.9375 1038.144531 C 1231.433594 1125.359375 1200 1203.820312 1156.390625 1268.035156 C 1289.523438 1163.476562 1377.773438 1010.609375 1401.722656 843.023438 C 1367.824219 912.890625 1315.625 979.335938 1248.859375 1038.0625 Z M 1248.9375 1038.144531 " fill-opacity="1" fill-rule="evenodd"/><path fill="#d97757" d="M 526.390625 1259.046875 C 781.832031 1500.238281 1097.746094 1415.570312 1198.410156 1078.964844 C 1012.597656 1217.269531 756.523438 1285.863281 526.390625 1259.046875 Z M 526.390625 1259.046875 " fill-opacity="1" fill-rule="evenodd"/><path fill="#d97757" d="M 657.375 1401.722656 C 587.507812 1367.824219 521.0625 1315.625 462.335938 1248.859375 C 375.121094 1231.351562 296.738281 1199.921875 232.441406 1156.3125 C 337.003906 1289.441406 489.867188 1377.691406 657.453125 1401.644531 Z M 657.375 1401.722656 " fill-opacity="1" fill-rule="evenodd"/><path fill="#d97757" d="M 1078.964844 301.988281 C 1217.269531 487.796875 1285.863281 743.871094 1259.046875 974.003906 C 1500.238281 718.566406 1415.570312 402.574219 1078.964844 301.988281 Z M 1078.964844 301.988281 " fill-opacity="1" fill-rule="evenodd"/><path fill="#d97757" d="M 843.023438 98.671875 C 912.890625 132.574219 979.335938 184.773438 1038.0625 251.539062 C 1125.277344 269.046875 1203.738281 300.476562 1267.957031 344.003906 C 1163.394531 210.875 1010.53125 122.625 842.945312 98.671875 Z M 843.023438 98.671875 " fill-opacity="1" fill-rule="evenodd"/><path fill="#d97757" d="M 630.558594 303.582031 C 494.484375 340.027344 376.472656 403.847656 286.871094 482.707031 C 263.394531 599.761719 267.136719 733.925781 303.582031 869.921875 C 340.027344 1005.996094 403.847656 1124.003906 482.707031 1213.605469 C 599.761719 1237.082031 733.925781 1233.34375 869.921875 1196.894531 C 1005.996094 1160.449219 1124.003906 1096.632812 1213.605469 1017.773438 C 1237.082031 900.714844 1233.34375 766.550781 1196.894531 630.558594 C 1160.449219 494.484375 1096.632812 376.472656 1017.773438 286.871094 C 900.714844 263.394531 766.550781 267.136719 630.558594 303.582031 Z M 630.558594 303.582031 " fill-opacity="1" fill-rule="evenodd"/><path fill="#d97757" d="M 301.988281 421.511719 C 487.796875 283.210938 743.953125 214.617188 974.003906 241.433594 C 718.566406 0.238281 402.574219 84.90625 301.988281 421.511719 Z M 301.988281 421.511719 " fill-opacity="1" fill-rule="evenodd"/><path fill="#d97757" d="M 98.671875 657.375 C 132.574219 587.507812 184.773438 521.0625 251.539062 462.335938 C 269.046875 375.121094 300.476562 296.65625 344.003906 232.441406 C 210.875 337.003906 122.625 489.867188 98.671875 657.453125 Z M 98.671875 657.375 " fill-opacity="1" fill-rule="evenodd"/></svg>