<svg xmlns="http://www.w3.org/2000/svg" xmlns:xlink="http://www.w3.org/1999/xlink" width="2000" zoomAndPan="magnify" viewBox="0 0 1500 1499.999933" height="2000" preserveAspectRatio="xMidYMid meet" version="1.0"><defs><clipPath id="9ce79a994c"><path d="M 32.710938 32.535156 L 1342 32.535156 L 1342 1467.285156 L 32.710938 1467.285156 Z M 32.710938 32.535156 " clip-rule="nonzero"/></clipPath><clipPath id="cf57e4ad12"><path d="M 1108 630 L 1467.460938 630 L 1467.460938 870 L 1108 870 Z M 1108 630 " clip-rule="nonzero"/></clipPath></defs><g clip-path="url(#9ce79a994c)"><path fill="#d97757" d="M 630.449219 32.710938 L 630.449219 461.289062 L 327.394531 158.234375 L 158.234375 327.394531 L 461.289062 630.449219 L 32.710938 630.449219 L 32.710938 869.546875 L 461.289062 869.546875 L 158.234375 1172.597656 L 327.394531 1341.757812 L 630.449219 1038.707031 L 630.449219 1467.285156 L 869.546875 1467.285156 L 869.546875 1038.707031 L 1172.597656 1341.757812 L 1341.757812 1172.597656 L 919.15625 749.996094 L 1341.757812 327.394531 L 1172.597656 158.234375 L 869.546875 461.289062 L 869.546875 32.710938 Z M 630.449219 32.710938 " fill-opacity="1" fill-rule="nonzero"/></g><g clip-path="url(#cf57e4ad12)"><path fill="#ffffff" d="M 1108.640625 869.546875 L 1108.640625 630.449219 L 1467.285156 630.449219 L 1467.285156 869.546875 Z M 1108.640625 869.546875 " fill-opacity="1" fill-rule="nonzero"/></g></svg>